<svg width="17" height="21" viewBox="0 0 17 21" fill="none" xmlns="http://www.w3.org/2000/svg">
<path d="M16 1H1L0.5 1.5L8.5 9.5L16.5 1.5L16 1Z" fill="#E1B393"/>
<path d="M8.50175 10.4984L0.27123 2.10204C0.00936385 1.83716 -0.069805 1.43506 0.067218 1.08082C0.204241 0.729775 0.527007 0.5 0.889357 0.5H16.1081C16.4704 0.5 16.7962 0.729775 16.9332 1.08082C17.0703 1.43506 16.9911 1.83397 16.7292 2.10204L8.50175 10.4984ZM0.950256 1.4574L8.50175 9.16124L16.0532 1.4574H0.950256Z" fill="#262626"/>
<path d="M8.95841 9.82812H8.04492V20.0212H8.95841V9.82812Z" fill="#262626"/>
<path d="M12.8254 20.5004H4.17769C3.92496 20.5004 3.72095 20.2865 3.72095 20.0217C3.72095 19.7568 3.92496 19.543 4.17769 19.543H12.8254C13.0781 19.543 13.2821 19.7568 13.2821 20.0217C13.2821 20.2865 13.0751 20.5004 12.8254 20.5004Z" fill="#262626"/>
</svg>
