<svg width="20" height="21" viewBox="0 0 20 21" fill="none" xmlns="http://www.w3.org/2000/svg">
<path d="M12 1H19.5V9H12V1Z" fill="#E1B393"/>
<path d="M12 12H19.5V20H12V12Z" fill="#E1B393"/>
<path d="M0.5 1H8V9H0.5V1Z" fill="#E1B393"/>
<path d="M0.5 12H8V20H0.5V12Z" fill="#E1B393"/>
<path d="M7.7943 9.48392H1.04747C0.468354 9.48392 0 9.00804 0 8.41962V1.56431C0 0.975884 0.468354 0.5 1.04747 0.5H7.79747C8.37342 0.5 8.84494 0.975884 8.84494 1.56431V8.42283C8.84177 9.00804 8.37342 9.48392 7.7943 9.48392ZM1.04747 1.35209C0.933544 1.35209 0.838608 1.44534 0.838608 1.56431V8.42283C0.838608 8.53859 0.93038 8.63505 1.04747 8.63505H7.79747C7.91139 8.63505 8.00633 8.5418 8.00633 8.42283V1.56431C8.00633 1.44855 7.91456 1.35209 7.79747 1.35209H1.04747Z" fill="#262626"/>
<path d="M18.9525 9.48392H12.2057C11.6297 9.48392 11.1582 9.00804 11.1582 8.41961V1.56431C11.1582 0.9791 11.6266 0.5 12.2057 0.5H18.9557C19.5316 0.5 20.0031 0.975884 20.0031 1.56431V8.42283C20 9.00804 19.5316 9.48392 18.9525 9.48392ZM12.2057 1.35209C12.0917 1.35209 11.9968 1.44534 11.9968 1.56431V8.42283C11.9968 8.53859 12.0886 8.63505 12.2057 8.63505H18.9557C19.0696 8.63505 19.1645 8.5418 19.1645 8.42283V1.56431C19.1645 1.44855 19.0728 1.35209 18.9557 1.35209H12.2057Z" fill="#262626"/>
<path d="M7.7943 20.4998H1.04747C0.468354 20.4998 0 20.0239 0 19.4355V12.577C0 11.9918 0.468354 11.5127 1.04747 11.5127H7.79747C8.37342 11.5127 8.84494 11.9886 8.84494 12.577V19.4355C8.84177 20.0239 8.37342 20.4998 7.7943 20.4998ZM1.04747 12.368C0.933544 12.368 0.838608 12.4612 0.838608 12.5802V19.4387C0.838608 19.5545 0.93038 19.651 1.04747 19.651H7.79747C7.91139 19.651 8.00633 19.5577 8.00633 19.4387V12.577C8.00633 12.4612 7.91456 12.3648 7.79747 12.3648H1.04747V12.368Z" fill="#262626"/>
<path d="M18.9525 20.4998H12.2057C11.6297 20.4998 11.1582 20.0239 11.1582 19.4355V12.577C11.1582 11.9918 11.6266 11.5127 12.2057 11.5127H18.9557C19.5316 11.5127 20.0031 11.9886 20.0031 12.577V19.4355C20 20.0239 19.5316 20.4998 18.9525 20.4998ZM12.2057 12.368C12.0917 12.368 11.9968 12.4612 11.9968 12.5802V19.4387C11.9968 19.5545 12.0886 19.651 12.2057 19.651H18.9557C19.0696 19.651 19.1645 19.5577 19.1645 19.4387V12.577C19.1645 12.4612 19.0728 12.3648 18.9557 12.3648H12.2057V12.368Z" fill="#262626"/>
</svg>
